<?xml version="1.0" standalone="no"?>
<!DOCTYPE svg PUBLIC "-//W3C//DTD SVG 20010904//EN"
 "http://www.w3.org/TR/2001/REC-SVG-20010904/DTD/svg10.dtd">
<svg version="1.0" xmlns="http://www.w3.org/2000/svg"
 width="260.000000pt" height="260.000000pt" viewBox="0 0 260.000000 260.000000"
 preserveAspectRatio="xMidYMid meet">
<metadata>
Created by potrace 1.11, written by Peter Selinger 2001-2013
</metadata>
<g transform="translate(0.000000,260.000000) scale(0.100000,-0.100000)"
fill="#000000" stroke="none">
<path d="M0 1300 l0 -1300 1300 0 1300 0 0 1300 0 1300 -1300 0 -1300 0 0
-1300z m1498 784 c106 -22 191 -65 252 -130 209 -220 154 -613 -102 -743 -95
-47 -177 -61 -380 -61 l-178 0 0 -325 0 -325 -145 0 -145 0 0 800 0 800 310 0
c244 0 327 -3 388 -16z"/>
<path d="M1090 1626 l0 -226 149 0 c179 0 234 14 286 71 19 21 39 57 46 81 21
80 -6 194 -57 239 -53 47 -83 53 -256 57 l-168 4 0 -226z"/>
</g>
</svg>
